PathFileType	4	(X/Y/Z)	/home/abdul/Desktop/myosuite/custom_workspace/IK/output/S14_12_1.trc
DataRate	CameraRate	NumFrames	NumMarkers	Units	OrigDataRate	OrigDataStartFrame	OrigNumFrames
200.0	200.0	44	3	mm	200.0	1786	2040
Frame#	Time	V_Shoulder			V_Elbow			V_Wrist		
		X1	Y1	Z1	X2	Y2	Z2	X3	Y3	Z3

1786	8.925	-156.03716648312775	674.617562740813	313.52163067609325	-194.5467473487398	462.51283911971467	43.58659441902586	-85.39238633988496	234.07055831811988	56.368443903941774
1787	8.93	-156.0492768436291	674.7648893260204	313.45341701689813	-195.0902063453696	462.75217256324004	43.59204256425516	-86.18819858365313	234.14669817039425	56.55199604921665
1788	8.935	-156.06254244762988	674.9174236178519	313.3839949498724	-195.64750610331635	463.0017534995988	43.59439355726657	-87.01660406287844	234.23405739844236	56.73055090478492
1789	8.94	-156.07701310317927	675.0752789219522	313.3133772338381	-196.21840265159437	463.2618207239923	43.59346623171581	-87.87765873319415	234.33348160801415	56.90357636260151
1790	8.945	-156.09273887048786	675.2385672037075	313.24157734124964	-196.80262550506208	463.5326069500179	43.58907921460008	-88.77135883409161	234.4458329088171	57.07053740504254
1791	8.95	-156.1097700054428	675.407398956339	313.16860944057345	-197.3998780934515	463.8143383724512	43.58105128175187	-89.69763958208904	234.5719883520118	57.23089710706282
1792	8.955	-156.1281569022449	675.5818830680664	313.09448837749375	-198.00983826699917	464.1072342287157	43.569201722283864	-90.65637399438748	234.712838261137	57.38411767864759
1793	8.96	-156.14795003525683	675.7621266884713	313.01922965498187	-198.63215887746526	464.41150635941386	43.55335071142217	-91.64737185010077	234.86928445855347	57.52966154587674
1794	8.965	-156.169199900154	675.9482350941881	312.9428494122715	-199.26646843299147	464.7273587682984	43.53331969111864	-92.67037879587352	235.04223838999675	57.666992468671296
1795	8.97	-156.19195695447235	676.1403115540625	312.8653644027857	-199.91237182490903	465.0549871820704	43.50893175778714	-93.725075602392	235.23261915033288	57.795576693042634
1796	8.975	-156.21627155764685	676.3384571939146	312.78679197106203	-200.56945112427135	465.39457861039455	43.48001205646321	-94.81107757794341	235.44135141411624	57.914884135416074
1797	8.98	-156.24219391063798	676.5427708610515	312.7071500287289	-201.23726644555006	465.7463109065276	43.44638818064161	-95.92793414479397	235.6693632750532	58.024389596353444
1798	8.985	-156.2697739952433	676.7533489886794	312.6264570295853	-201.91535687460322	466.1103523289623	43.407890577002746	-97.07512858373155	235.91758399897407	58.12357400075584
1799	8.99	-156.29906151319292	676.9702854603648	312.54473194384065	-202.603241457702	466.48686110449285	43.36435295419612	-98.25207795165957	236.18694169541112	58.21192566138876
1800	8.995	-156.3301058251282	677.1936714747045	312.4619942315733	-203.3004202480878	466.87598499311696	43.315612694807896	-99.45813317663251	236.4783609133641	58.288941562339645
1801	9.0	-156.362955889564	677.4235954103611	312.3782638154689	-204.00637540623012	467.2778608551955	43.261511269599836	-100.69257933419547	236.79276016730876	58.354128658793094
1802	9.005	-156.3976602019346	677.6601426916287	312.2935610529014	-204.7205723496694	467.6926142213003	43.20189465306905	-101.95463610832675	237.13104939996455	58.40700518929381
1803	9.01	-156.4342667338238	677.9033956546975	312.20790670742116	-205.44246094805783	468.12035886519476	43.13661373934175	-103.24345843969166	237.49412738877942	58.44710199646299
1804	9.015	-156.47282287247995	678.153433414786	312.1213219197169	-206.17147675876373	468.561196380404	43.06552475738066	-104.55813736329334	237.8828791035158	58.473963851941825
1805	9.02	-156.51337536071608	678.4103317343132	312.03382817812	-206.90704229817737	469.01521576085065	42.988489684453135	-105.89770103695946	238.2981730227234	58.48715078115815
1806	9.025	-156.55597023729464	678.6741628922899	311.94544728871983	-207.64856834365702	469.4824929860569	42.905376656778444	-107.26111596143215	238.74085841726523	58.4862393833491
1807	9.03	-156.60065277789622	678.9449955551072	311.85620134516097	-208.39545526088378	469.9630906114411	42.81606037624479	-108.64728839213547	239.211762609415	58.47082414212757
1808	9.035	-156.64746743677043	679.2228946489021	311.76611269819335	-209.14709435125684	470.45705736427294	42.7204225120623	-110.0550659419841	239.71168821637087	58.440518721752156
1809	9.04	-156.69645778916538	679.5079212336866	311.67520392504844	-209.90286921385876	470.9644277458949	42.618352096195856	-111.48323937386954	240.24141038732336	58.394957244152735
1810	9.045	-156.7476664746316	679.8001323794251	311.58349779871185	-210.66215711645995	471.4852216408686	42.509745911401865	-112.93054458072208	240.8016740434776	58.33379554167661
1811	9.05	-156.80113514129386	680.0995810442472	311.49101725716747	-211.42433037001354	472.0194439337676	42.39450887067599	-114.39566475029814	241.3931911306579	58.25671238045513
1812	9.055	-156.85690439118414	680.4063159549864	311.39778537268427	-212.1887577011209	472.5670841344128	42.272554386903685	-115.8772327110903	242.0166378943125	58.163410649249016
1813	9.06	-156.9150137267243	680.7203814902354	311.30382532121934	-212.95480561702863	473.128116012433	42.14380473149289	-117.37383345500155	242.67265218689178	58.0536185086128
1814	9.065	-156.9755014984477	681.0418175661063	311.2091603520084	-213.72183975785197	473.7024972421344	42.00819138075798	-118.88400683167225	243.3618308176836	57.92709049522611
1815	9.07	-157.0384048540445	681.3706595248924	311.1138137574167	-214.48922623091374	474.2901690587837	41.865655348815466	-120.40625040860098	244.08472695526612	57.783608576272904
1816	9.075	-157.10375968881397	681.7069380268193	311.0178088431196	-215.25633292234374	474.89105592754424	41.71614750574575	-121.93902249046151	244.84184759276616	57.62298314880911
1817	9.08	-157.1716005976037	682.0506789450798	310.92116889868225	-216.02253078140544	475.5050652264622	41.559628879769996	-123.48074529029407	245.63365108610034	57.445053979146174
1818	9.085	-157.2419608283129	682.4019032643452	310.82391716860786	-216.78719507340486	476.1320869450763	41.39607094218833	-125.0298082445401	246.46054477532124	57.24969107739162
1819	9.09	-157.31487223703405	682.7606269829411	310.7260768239192	-217.54970659748233	476.7719934004179	41.225455873824345	-126.58457146320318	247.3228826990893	57.03679550242927
1820	9.095	-157.3903652449037	683.1268610188808	310.6276709343403	-218.30945286606288	477.42463897235757	41.04777681172454	-128.14336930575615	248.22096341214868	56.80630009279094
1821	9.1	-157.46846879672862	683.5006111199436	310.52872244113956	-219.06582924322024	478.0898598604347	40.86303807487094	-129.70451407278065	249.15502791549267	56.55817011906762
1822	9.105	-157.54921032145282	683.8818777779815	310.42925413069594	-219.81824003966062	478.7674738644504	40.67125536768337	-131.2662998027234	250.1252577086732	56.292403853732026
1823	9.11	-157.63261569452357	684.2706561476434	310.3292886088471	-220.5660995624511	479.4572801912204	40.47245596011519	-132.827006162587	251.13177297342796	56.00903305449448
1824	9.115	-157.71870920221332	684.6669359696953	310.2288482760744	-221.30883311799477	480.15905928995585	40.26667884318293	-134.38490242084615	252.17463089747653	55.708123357590004
1825	9.12	-157.80751350794898	685.0707014991164	310.1279553035797	-222.0458779670986	480.8725727187846	40.053974858815835	-135.93825149039495	253.25382414697089	55.38977457769599
1826	9.125	-157.89904962069616	685.4819314381451	310.02663161030324	-222.77668423128688	481.5975630449318	39.83440680296567	-137.48531402889196	254.3692794956769	55.05412091150525
1827	9.13	-157.99333686544193	685.9005988744487	309.924898840931	-223.50071574978875	482.33375378105353	39.60804950098016	-139.02435258347754	255.52085661851277	54.70133104232707
1828	9.135	-158.09039285581494	686.3266712245801	309.82277834493635	-224.21745088687396	483.0808493601638	39.37498985431415	-140.55363576649853	256.70834705658245	54.33160814345876
1829	9.14	-158.1902334688775	686.7601101828873	309.720291156696	-224.92638328942616	483.83853515151077	39.13532685773109	-142.07144244858796	257.93147336031194	53.94518977845996
